<svg xmlns="http://www.w3.org/2000/svg" viewBox="0 0 64 64"><circle cx="32" cy="32" r="29" fill="#f6efdc" stroke="#1d1a24" stroke-width="3"/><circle cx="32" cy="32" r="22" fill="none" stroke="#b48cff" stroke-width="4"/><g transform="translate(-4.5 3.5)"><path d="M32 12.5 C40 15 46 18 47 26 C48 37 41 45 32 51.5 C23 45 16 37 17 26 C18 18 24 15 32 12.5Z" fill="none" stroke="#1d1a24" stroke-width="1.6" stroke-linejoin="round" stroke-linecap="round" stroke-dasharray="3 2.6"/></g><path d="M32 12.5 C40 15 46 18 47 26 C48 37 41 45 32 51.5 C23 45 16 37 17 26 C18 18 24 15 32 12.5Z" fill="#ffb347" stroke="#1d1a24" stroke-width="2.5" stroke-linejoin="round" stroke-linecap="round"/><path d="M21.5 27 Q26.8 33.5 32 27 Q37.2 33.5 42.5 27 M25 37.5 Q28.5 42.5 32 37.5 Q35.5 42.5 39 37.5" fill="none" stroke="#1d1a24" stroke-width="2" stroke-linejoin="round" stroke-linecap="round"/><path d="M42.5 10.9 L43.9 16.1 L49.1 17.5 L43.9 18.9 L42.5 24.1 L41.1 18.9 L35.9 17.5 L41.1 16.1Z" fill="#f6efdc" stroke="#1d1a24" stroke-width="1.6" stroke-linejoin="round" stroke-linecap="round"/></svg>
