<svg xmlns="http://www.w3.org/2000/svg" viewBox="0 0 64 64"><circle cx="32" cy="32" r="29" fill="#f6efdc" stroke="#1d1a24" stroke-width="3"/><circle cx="32" cy="32" r="22" fill="none" stroke="#c08cff" stroke-width="4"/><g transform="rotate(38 32 32)"><path d="M29.2 34 L34.8 34 L34 54.5 Q32 57 30 54.5Z" fill="#c8955a" stroke="#1d1a24" stroke-width="2.5" stroke-linejoin="round" stroke-linecap="round"/><path d="M22.5 22.5 Q23.5 36.5 32 36.5 Q40.5 36.5 41.5 22.5 L37.8 24.4 Q37 32.6 32 32.6 Q27 32.6 26.2 24.4Z" fill="#c8955a" stroke="#1d1a24" stroke-width="2.4" stroke-linejoin="round" stroke-linecap="round"/><path d="M32 5.5 L39.5 13.5 L39.5 25 L32 32 L24.5 25 L24.5 13.5Z" fill="#b48cff"/><path d="M32 5.5 L39.5 13.5 L39.5 25 L32 32Z" fill="#f6efdc"/><path d="M32 5.5 L39.5 13.5 L39.5 25 L32 32 L24.5 25 L24.5 13.5Z" fill="none" stroke="#1d1a24" stroke-width="2.6" stroke-linejoin="round" stroke-linecap="round"/><path d="M32 6.5 L32 31" fill="none" stroke="#1d1a24" stroke-width="1.7" stroke-linejoin="round" stroke-linecap="round"/><path d="M24.5 13.5 L32 17 L39.5 13.5" fill="none" stroke="#1d1a24" stroke-width="1.5" stroke-linejoin="round" stroke-linecap="round"/></g></svg>
