<svg xmlns="http://www.w3.org/2000/svg" viewBox="0 0 64 64"><circle cx="32" cy="32" r="29" fill="#f6efdc" stroke="#1d1a24" stroke-width="3"/><circle cx="32" cy="32" r="22" fill="none" stroke="#d79cff" stroke-width="4"/><circle cx="13.5" cy="49" r="2" fill="#1d1a24"/><circle cx="18.6" cy="45.6" r="2" fill="#1d1a24"/><circle cx="23.7" cy="42.2" r="2" fill="#1d1a24"/><path d="M23 33 L29 29 M27 39.5 L32 36" fill="none" stroke="#1d1a24" stroke-width="2.2" stroke-linejoin="round" stroke-linecap="round"/><rect x="29.5" y="13" width="18" height="25" rx="3" fill="#b48cff" stroke="#1d1a24" stroke-width="2.6" stroke-linejoin="round" transform="rotate(28 38.5 25.5)"/><rect x="33" y="17.5" width="11" height="16" rx="1.5" fill="none" stroke="#f6efdc" stroke-width="1.6" transform="rotate(28 38.5 25.5)"/><g transform="rotate(28 38.5 25.5)"><path d="M38.5 20.3 L42.1 25.5 L38.5 30.7 L34.9 25.5Z" fill="#f6efdc" stroke="#1d1a24" stroke-width="1.6" stroke-linejoin="round" stroke-linecap="round"/></g><path d="M52 8.9 L53.04 12.46 L56.6 13.5 L53.04 14.54 L52 18.1 L50.96 14.54 L47.4 13.5 L50.96 12.46Z" fill="#d79cff" stroke="#1d1a24" stroke-width="1.5" stroke-linejoin="round" stroke-linecap="round"/></svg>
