{
  "accessors": [
    {
      "bufferView": 2,
      "componentType": 5126,
      "count": 1261,
      "max": [
        0.07598109543323517,
        0.07598109543323517,
        0.24194994568824768
      ],
      "min": [
        -0.07598109543323517,
        -0.07598108798265457,
        0.00020723044872283936
      ],
      "type": "VEC3"
    },
    {
      "bufferView": 2,
      "byteOffset": 15132,
      "componentType": 5126,
      "count": 1261,
      "max": [
        0.9983571171760559,
        0.9983570575714111,
        0.9999443292617798
      ],
      "min": [
        -0.9983571171760559,
        -0.9983570575714111,
        -1.0
      ],
      "type": "VEC3"
    },
    {
      "bufferView": 1,
      "componentType": 5126,
      "count": 1261,
      "max": [
        0.625,
        1.0
      ],
      "min": [
        0.0,
        0.0
      ],
      "type": "VEC2"
    },
    {
      "bufferView": 0,
      "componentType": 5125,
      "count": 4800,
      "type": "SCALAR"
    },
    {
      "bufferView": 2,
      "byteOffset": 30264,
      "componentType": 5126,
      "count": 128,
      "max": [
        0.04733351245522499,
        0.04733351245522499,
        0.1837356686592102
      ],
      "min": [
        -0.04733351245522499,
        -0.04733351245522499,
        0.07128770649433136
      ],
      "type": "VEC3"
    },
    {
      "bufferView": 2,
      "byteOffset": 31800,
      "componentType": 5126,
      "count": 128,
      "max": [
        0.9827641844749451,
        0.9827641844749451,
        0.18486419320106506
      ],
      "min": [
        -0.9827641844749451,
        -0.9827641844749451,
        0.18486404418945313
      ],
      "type": "VEC3"
    },
    {
      "bufferView": 1,
      "byteOffset": 10088,
      "componentType": 5126,
      "count": 128,
      "max": [
        0.0,
        0.0
      ],
      "min": [
        0.0,
        0.0
      ],
      "type": "VEC2"
    },
    {
      "bufferView": 0,
      "byteOffset": 19200,
      "componentType": 5125,
      "count": 384,
      "type": "SCALAR"
    }
  ],
  "asset": {
    "extras": {
      "author": "kayana12 (https://sketchfab.com/kayana12)",
      "license": "CC-BY-4.0 (http://creativecommons.org/licenses/by/4.0/)",
      "source": "https://sketchfab.com/3d-models/traffic-cone-low-poly-model-for-game-12a6610a64f5482ba1e8abbe4b3bb613",
      "title": "Traffic Cone Low Poly Model for Game"
    },
    "generator": "Sketchfab-16.54.0",
    "version": "2.0"
  },
  "bufferViews": [
    {
      "buffer": 0,
      "byteLength": 20736,
      "name": "floatBufferViews",
      "target": 34963
    },
    {
      "buffer": 0,
      "byteLength": 11112,
      "byteOffset": 20736,
      "byteStride": 8,
      "name": "floatBufferViews",
      "target": 34962
    },
    {
      "buffer": 0,
      "byteLength": 33336,
      "byteOffset": 31848,
      "byteStride": 12,
      "name": "floatBufferViews",
      "target": 34962
    }
  ],
  "buffers": [
    {
      "byteLength": 65184,
      "uri": "scene.bin"
    }
  ],
  "materials": [
    {
      "doubleSided": true,
      "name": "orange",
      "pbrMetallicRoughness": {
        "baseColorFactor": [
          0.800212,
          0.0677687,
          0.00836704,
          1.0
        ],
        "metallicFactor": 0.0,
        "roughnessFactor": 0.9509859834464669
      }
    },
    {
      "doubleSided": true,
      "name": "white",
      "pbrMetallicRoughness": {
        "baseColorFactor": [
          0.8,
          0.8,
          0.8,
          1.0
        ],
        "metallicFactor": 0.0,
        "roughnessFactor": 0.8211145618000169
      }
    }
  ],
  "meshes": [
    {
      "name": "Cube_orange_0",
      "primitives": [
        {
          "attributes": {
            "NORMAL": 1,
            "POSITION": 0,
            "TEXCOORD_0": 2
          },
          "indices": 3,
          "material": 0,
          "mode": 4
        }
      ]
    },
    {
      "name": "Cube_white_0",
      "primitives": [
        {
          "attributes": {
            "NORMAL": 5,
            "POSITION": 4,
            "TEXCOORD_0": 6
          },
          "indices": 7,
          "material": 1,
          "mode": 4
        }
      ]
    }
  ],
  "nodes": [
    {
      "children": [
        1
      ],
      "matrix": [
        1.0,
        0.0,
        0.0,
        0.0,
        0.0,
        2.220446049250313e-16,
        -1.0,
        0.0,
        0.0,
        1.0,
        2.220446049250313e-16,
        0.0,
        0.0,
        0.0,
        0.0,
        1.0
      ],
      "name": "Sketchfab_model"
    },
    {
      "children": [
        2
      ],
      "matrix": [
        0.009999999776482582,
        0.0,
        0.0,
        0.0,
        0.0,
        0.0,
        0.009999999776482582,
        0.0,
        0.0,
        -0.009999999776482582,
        0.0,
        0.0,
        0.0,
        0.0,
        0.0,
        1.0
      ],
      "name": "cone.fbx"
    },
    {
      "children": [
        3
      ],
      "name": "RootNode"
    },
    {
      "children": [
        4,
        5
      ],
      "matrix": [
        100.0,
        0.0,
        0.0,
        0.0,
        0.0,
        -1.629206793918314e-05,
        -99.99999999999868,
        0.0,
        0.0,
        99.99999999999868,
        -1.629206793918314e-05,
        0.0,
        0.0,
        0.0,
        0.0,
        1.0
      ],
      "name": "Cube"
    },
    {
      "mesh": 0,
      "name": "Cube_orange_0"
    },
    {
      "mesh": 1,
      "name": "Cube_white_0"
    }
  ],
  "scene": 0,
  "scenes": [
    {
      "name": "Sketchfab_Scene",
      "nodes": [
        0
      ]
    }
  ]
}
