<svg xmlns="http://www.w3.org/2000/svg" viewBox="0 0 64 64"><circle cx="32" cy="32" r="29" fill="#f6efdc" stroke="#1d1a24" stroke-width="3"/><circle cx="32" cy="32" r="25" fill="none" stroke="#8fd0ff" stroke-width="3.5"/><path d="M26.0 12.0 C32.0 14.0 40.0 22.0 39.0 32 C40.0 42.0 32.0 50.0 26.0 52.0" fill="none" stroke="#1d1a24" stroke-width="6" stroke-linejoin="round" stroke-linecap="round"/><path d="M26.0 12.0 C32.0 14.0 40.0 22.0 39.0 32 C40.0 42.0 32.0 50.0 26.0 52.0" fill="none" stroke="#e8dcc0" stroke-width="3" stroke-linejoin="round" stroke-linecap="round"/><path d="M26.0 12.0 L26.0 52.0" fill="none" stroke="#1d1a24" stroke-width="1.4" stroke-linejoin="round" stroke-linecap="round"/><path d="M16.0 32.0 L43.0 32.0" fill="none" stroke="#1d1a24" stroke-width="3" stroke-linejoin="round" stroke-linecap="round"/><path d="M50.0 32.0 L43.0 36.2 L43.0 27.8 Z" fill="#4fb6d8" stroke="#1d1a24" stroke-width="2" stroke-linejoin="round" stroke-linecap="round"/><path d="M16.0 32.0 l-4.0 4.0 M16.0 32.0 l-4.0 -4.0" fill="none" stroke="#4fb6d8" stroke-width="2.4" stroke-linejoin="round" stroke-linecap="round"/><path d="M20.0 32.0 l-4.0 4.0 M20.0 32.0 l-4.0 -4.0" fill="none" stroke="#4fb6d8" stroke-width="2.4" stroke-linejoin="round" stroke-linecap="round"/></svg>