<svg xmlns="http://www.w3.org/2000/svg" viewBox="0 0 64 64"><circle cx="32" cy="32" r="29" fill="#f6efdc" stroke="#1d1a24" stroke-width="3"/><circle cx="32" cy="32" r="23" fill="none" stroke="#f0c23c" stroke-width="3.5"/><path d="M32 14 L46 19 L45 33 Q43 43 32 50 Q21 43 19 33 L18 19 Z" fill="#f0c23c" stroke="#1d1a24" stroke-width="2.5" stroke-linejoin="round" stroke-linecap="round" transform="translate(32 32) scale(1.0) translate(-32 -32)"/><path d="M32 18 L32 46" fill="none" stroke="#1d1a24" stroke-width="2" stroke-linecap="round" stroke-linejoin="round" transform="translate(32 32) scale(1.0) translate(-32 -32)"/><path d="M28 26 L36 26 L36 30 L40 30 L40 36 L36 36 L36 40 L28 40 L28 36 L24 36 L24 30 L28 30 Z" fill="#fffdf3" stroke="#1d1a24" stroke-width="2" stroke-linejoin="round" stroke-linecap="round"/></svg>
