<svg xmlns="http://www.w3.org/2000/svg" viewBox="0 0 64 64"><circle cx="32" cy="32" r="29" fill="#f6efdc" stroke="#1d1a24" stroke-width="3"/><circle cx="32" cy="32" r="23" fill="none" stroke="#e8a23a" stroke-width="3.5"/><path d="M30 22 L34 22 L34.5 53 L29.5 53 Z" fill="#8a5a2b" stroke="#1d1a24" stroke-width="2.2" stroke-linejoin="round" stroke-linecap="round" transform="rotate(0 32 32)"/><path d="M19 12 L45 12 L45 25 L19 25 Z" fill="#8a8f99" stroke="#1d1a24" stroke-width="2.5" stroke-linejoin="round" stroke-linecap="round" transform="rotate(0 32 32)"/><path d="M17 14 L19 14 L19 23 L17 23 Z" fill="#e8a23a" stroke="#1d1a24" stroke-width="2" stroke-linejoin="round" stroke-linecap="round" transform="rotate(0 32 32)"/><path d="M45 14 L47 14 L47 23 L45 23 Z" fill="#e8a23a" stroke="#1d1a24" stroke-width="2" stroke-linejoin="round" stroke-linecap="round" transform="rotate(0 32 32)"/><path d="M14 54 L22 46 L28 50 M50 54 L42 46 L36 50 M32 54 L32 50" fill="none" stroke="#1d1a24" stroke-width="2.6" stroke-linecap="round" stroke-linejoin="round"/></svg>
